<?xml version="1.0" encoding="UTF-8" standalone="no"?>
<svg width="12px" height="10px" viewBox="0 0 12 10" version="1.1" xmlns="http://www.w3.org/2000/svg" xmlns:xlink="http://www.w3.org/1999/xlink" xmlns:sketch="http://www.bohemiancoding.com/sketch/ns">
    <!-- Generator: Sketch 3.4.4 (17249) - http://www.bohemiancoding.com/sketch -->
    <title> 3</title>
    <desc>Created with Sketch.</desc>
    <defs></defs>
    <g id="Interaction-Flows" stroke="none" stroke-width="1" fill="none" fill-rule="evenodd" sketch:type="MSPage">
        <g id="1366x768-Regular-Window" sketch:type="MSArtboardGroup" transform="translate(-1155.000000, -308.000000)" fill="#4A4A4A">
            <g id="Panel-UI" sketch:type="MSLayerGroup" transform="translate(1002.000000, 70.000000)">
                <g id="EmailLink" transform="translate(61.000000, 228.000000)" sketch:type="MSShapeGroup">
                    <path d="M104,13.0401786 L104,18.3571429 C104,18.6517872 103.89509,18.9040168 103.685268,19.1138393 C103.475445,19.3236618 103.223216,19.4285714 102.928571,19.4285714 L93.0714286,19.4285714 C92.7767842,19.4285714 92.5245546,19.3236618 92.3147321,19.1138393 C92.1049097,18.9040168 92,18.6517872 92,18.3571429 L92,13.0401786 C92.1964296,13.2589297 92.4218737,13.4531242 92.6763393,13.6227679 C94.2924188,14.7209876 95.4017827,15.4910692 96.0044643,15.9330357 C96.2589298,16.1205367 96.465401,16.2667405 96.6238839,16.3716518 C96.7823669,16.476563 96.9933023,16.5837048 97.2566964,16.6930804 C97.5200906,16.8024559 97.7656239,16.8571429 97.9933036,16.8571429 L98,16.8571429 L98.0066964,16.8571429 C98.2343761,16.8571429 98.4799094,16.8024559 98.7433036,16.6930804 C99.0066977,16.5837048 99.2176331,16.476563 99.3761161,16.3716518 C99.534599,16.2667405 99.7410702,16.1205367 99.9955357,15.9330357 C100.754468,15.3839258 101.866064,14.6138442 103.330357,13.6227679 C103.584823,13.4486598 103.808035,13.2544654 104,13.0401786 L104,13.0401786 Z M104,11.0714286 C104,11.4241089 103.890626,11.7611591 103.671875,12.0825893 C103.453124,12.4040195 103.180805,12.6785703 102.854911,12.90625 C101.176331,14.0714344 100.131698,14.7968736 99.7209821,15.0825893 C99.6763391,15.1138394 99.5814739,15.1819191 99.4363839,15.2868304 C99.2912939,15.3917416 99.1707594,15.4765622 99.0747768,15.5412946 C98.9787942,15.6060271 98.8627239,15.678571 98.7265625,15.7589286 C98.5904011,15.8392861 98.4620542,15.8995534 98.3415179,15.9397321 C98.2209815,15.9799109 98.1093755,16 98.0066964,16 L98,16 L97.9933036,16 C97.8906245,16 97.7790185,15.9799109 97.6584821,15.9397321 C97.5379458,15.8995534 97.4095989,15.8392861 97.2734375,15.7589286 C97.1372761,15.678571 97.0212058,15.6060271 96.9252232,15.5412946 C96.8292406,15.4765622 96.7087061,15.3917416 96.5636161,15.2868304 C96.4185261,15.1819191 96.3236609,15.1138394 96.2790179,15.0825893 C95.8727658,14.7968736 95.2879502,14.3895116 94.5245536,13.8604911 C93.7611569,13.3314706 93.3035722,13.0133934 93.1517857,12.90625 C92.8749986,12.7187491 92.6138405,12.4609391 92.3683036,12.1328125 C92.1227666,11.8046859 92,11.5000014 92,11.21875 C92,10.870534 92.092633,10.5803583 92.2779018,10.3482143 C92.4631706,10.1160703 92.7276769,10 93.0714286,10 L102.928571,10 C103.218751,10 103.469865,10.1049097 103.68192,10.3147321 C103.893974,10.5245546 104,10.7767842 104,11.0714286 L104,11.0714286 Z" id="-3"></path>
                </g>
            </g>
        </g>
    </g>
</svg>